name rise34.3697peak60.0498fall86.3158.mot
datacolumns 19
datarows 20
range 15.72494500000000 15.75660800000000
endheader
time	ground_force1_vx	ground_force1_vy	ground_force1_vz	ground_force1_px	ground_force1_py	ground_force1_pz	ground_force2_vx	ground_force2_vy	ground_force2_vz	ground_force2_px	ground_force2_py	ground_force2_pz	ground_torque1_x	ground_torque1_y	ground_torque1_z	ground_torque2_x	ground_torque2_y	ground_torque2_z	
15.72494500000000	-5.80178800000000	42.56900000000000	-9.37299600000000	0.37244600000000	0.00000000000000	0.10208200000000	-36.02678500000000	783.66726900000003	-58.07669000000000	0.19170200000000	0.00000000000000	-0.08169900000000	0.00000000000000	-7.47342400000000	0.00000000000000	0.00000000000000	-25.87716800000000	0.00000000000000	
15.72660700000000	-6.32881600000000	49.91416400000000	-10.51054400000000	0.37643000000000	0.00000000000000	0.10324200000000	-36.22472600000000	780.62277600000004	-57.65842300000000	0.19103300000000	0.00000000000000	-0.08161800000000	0.00000000000000	-8.45127000000000	0.00000000000000	0.00000000000000	-25.66629800000000	0.00000000000000	
15.72827100000000	-6.73567500000000	57.35771500000000	-11.53360900000000	0.37997000000000	0.00000000000000	0.10429700000000	-36.43426500000000	777.46142999999995	-57.21888900000000	0.19035600000000	0.00000000000000	-0.08153500000000	0.00000000000000	-9.35176300000000	0.00000000000000	0.00000000000000	-25.45228200000000	0.00000000000000	
15.72994300000000	-7.00600500000000	64.80442499999999	-12.41733700000000	0.38314100000000	0.00000000000000	0.10526400000000	-36.65579400000000	774.18318599999998	-56.75816900000000	0.18967200000000	0.00000000000000	-0.08144900000000	0.00000000000000	-10.15428100000000	0.00000000000000	0.00000000000000	-25.23532700000000	0.00000000000000	
15.73160300000000	-7.13011700000000	72.18221500000000	-13.14546300000000	0.38600500000000	0.00000000000000	0.10615500000000	-36.88964400000000	770.78797199999997	-56.27636300000000	0.18898200000000	0.00000000000000	-0.08136100000000	0.00000000000000	-10.84494200000000	0.00000000000000	0.00000000000000	-25.01563700000000	0.00000000000000	
15.73327000000000	-7.10488100000000	79.44439500000000	-13.71038000000000	0.38861200000000	0.00000000000000	0.10698000000000	-37.13607100000000	767.27568299999996	-55.77359400000000	0.18828500000000	0.00000000000000	-0.08126900000000	0.00000000000000	-11.41674700000000	0.00000000000000	0.00000000000000	-24.79340900000000	0.00000000000000	
15.73494200000000	-6.93309900000000	86.56942600000001	-14.11250600000000	0.39100100000000	0.00000000000000	0.10774900000000	-37.39526500000000	763.64618199999995	-55.25000200000000	0.18758100000000	0.00000000000000	-0.08117500000000	0.00000000000000	-11.86913500000000	0.00000000000000	0.00000000000000	-24.56883800000000	0.00000000000000	
15.73660700000000	-6.62250900000000	93.55866200000000	-14.35908600000000	0.39320500000000	0.00000000000000	0.10846800000000	-37.66733400000000	759.89929500000005	-54.70575300000000	0.18687100000000	0.00000000000000	-0.08107800000000	0.00000000000000	-12.20708300000000	0.00000000000000	0.00000000000000	-24.34211300000000	0.00000000000000	
15.73827000000000	-6.18455100000000	100.43257900000000	-14.46265300000000	0.39525100000000	0.00000000000000	0.10914300000000	-37.95231200000000	756.03480700000000	-54.14103400000000	0.18615600000000	0.00000000000000	-0.08097700000000	0.00000000000000	-12.43990300000000	0.00000000000000	0.00000000000000	-24.11341400000000	0.00000000000000	
15.73993600000000	-5.63305200000000	107.22609300000001	-14.43931900000000	0.39716200000000	0.00000000000000	0.10977800000000	-38.25015000000000	752.05246599999998	-53.55605800000000	0.18543600000000	0.00000000000000	-0.08087400000000	0.00000000000000	-12.57989800000000	0.00000000000000	0.00000000000000	-23.88291700000000	0.00000000000000	
15.74160800000000	-4.98294900000000	113.98349500000000	-14.30706500000000	0.39895600000000	0.00000000000000	0.11037800000000	-38.56071700000000	747.95197499999995	-52.95106000000000	0.18471100000000	0.00000000000000	-0.08076700000000	0.00000000000000	-12.64100000000000	0.00000000000000	0.00000000000000	-23.65079000000000	0.00000000000000	
15.74328000000000	-4.24913600000000	120.75348800000000	-14.08418500000000	0.40064900000000	0.00000000000000	0.11094700000000	-38.88379300000000	743.73299899999995	-52.32630500000000	0.18398300000000	0.00000000000000	-0.08065800000000	0.00000000000000	-12.63750700000000	0.00000000000000	0.00000000000000	-23.41719300000000	0.00000000000000	
15.74494400000000	-3.44552700000000	127.58471200000000	-13.78796600000000	0.40225400000000	0.00000000000000	0.11148800000000	-39.21907400000000	739.39515800000004	-51.68208000000000	0.18325100000000	0.00000000000000	-0.08054500000000	0.00000000000000	-12.58301700000000	0.00000000000000	0.00000000000000	-23.18227600000000	0.00000000000000	
15.74660400000000	-2.58434900000000	134.52201299999999	-13.43367200000000	0.40378300000000	0.00000000000000	0.11200200000000	-39.56616500000000	734.93803100000002	-51.01870400000000	0.18251700000000	0.00000000000000	-0.08042800000000	0.00000000000000	-12.48958500000000	0.00000000000000	0.00000000000000	-22.94618200000000	0.00000000000000	
15.74827300000000	-1.67569400000000	141.60361499999999	-13.03386200000000	0.40524500000000	0.00000000000000	0.11249300000000	-39.92458300000000	730.36115700000005	-50.33652300000000	0.18178100000000	0.00000000000000	-0.08030900000000	0.00000000000000	-12.36715100000000	0.00000000000000	0.00000000000000	-22.70904200000000	0.00000000000000	
15.74994700000000	-0.72731500000000	148.85926000000001	-12.59803100000000	0.40664700000000	0.00000000000000	0.11296200000000	-40.29375300000000	725.66403800000001	-49.63591100000000	0.18104500000000	0.00000000000000	-0.08018600000000	0.00000000000000	-12.22322900000000	0.00000000000000	0.00000000000000	-22.47098000000000	0.00000000000000	
15.75160400000000	0.25536400000000	156.30928000000000	-12.13254400000000	0.40799700000000	0.00000000000000	0.11341200000000	-40.67300900000000	720.84613899999999	-48.91727300000000	0.18030800000000	0.00000000000000	-0.08005900000000	0.00000000000000	-12.06282200000000	0.00000000000000	0.00000000000000	-22.23210500000000	0.00000000000000	
15.75327500000000	1.26906500000000	163.96448799999999	-11.64081800000000	0.40930100000000	0.00000000000000	0.11384300000000	-41.06159500000000	715.90689399999997	-48.18104700000000	0.17957400000000	0.00000000000000	-0.07992900000000	0.00000000000000	-11.88855000000000	0.00000000000000	0.00000000000000	-21.99251900000000	0.00000000000000	
15.75493600000000	2.31233700000000	171.82677300000000	-11.12368800000000	0.41056300000000	0.00000000000000	0.11425600000000	-41.45866400000000	710.84570900000006	-47.42769900000000	0.17884100000000	0.00000000000000	-0.07979500000000	0.00000000000000	-11.70092800000000	0.00000000000000	0.00000000000000	-21.75231100000000	0.00000000000000	
15.75660800000000	3.38516100000000	179.89020199999999	-10.57990400000000	0.41178900000000	0.00000000000000	0.11465400000000	-41.86328100000000	705.66197099999999	-46.65772700000000	0.17811200000000	0.00000000000000	-0.07965700000000	0.00000000000000	-11.49874600000000	0.00000000000000	0.00000000000000	-21.51155700000000	0.00000000000000	
